<?xml version="1.0" encoding="UTF-8" standalone="no"?>
<!-- Created with Inkscape (http://www.inkscape.org/) -->

<svg
   width="4850"
   height="4850"
   viewBox="0 0 1283.2292 1283.2292"
   version="1.1"
   id="svg1"
   inkscape:version="1.3.2 (1:1.3.2+202311252150+091e20ef0f)"
   sodipodi:docname="color(sun)-bg-alpha.svg"
   inkscape:export-filename="color-bg-alpha.png"
   inkscape:export-xdpi="25.336082"
   inkscape:export-ydpi="25.336082"
   xmlns:inkscape="http://www.inkscape.org/namespaces/inkscape"
   xmlns:sodipodi="http://sodipodi.sourceforge.net/DTD/sodipodi-0.dtd"
   xmlns:xlink="http://www.w3.org/1999/xlink"
   xmlns="http://www.w3.org/2000/svg"
   xmlns:svg="http://www.w3.org/2000/svg">
  <sodipodi:namedview
     id="namedview1"
     pagecolor="#ffffff"
     bordercolor="#000000"
     borderopacity="0.25"
     inkscape:showpageshadow="2"
     inkscape:pageopacity="0.0"
     inkscape:pagecheckerboard="0"
     inkscape:deskcolor="#d1d1d1"
     inkscape:document-units="mm"
     inkscape:zoom="0.1233976"
     inkscape:cx="1742.3354"
     inkscape:cy="1871.9976"
     inkscape:window-width="2256"
     inkscape:window-height="1467"
     inkscape:window-x="0"
     inkscape:window-y="0"
     inkscape:window-maximized="1"
     inkscape:current-layer="g78" />
  <defs
     id="defs1">
    <radialGradient
       inkscape:collect="always"
       xlink:href="#linearGradient2084"
       id="radialGradient2435-76"
       cx="462.09583"
       cy="388.03867"
       fx="462.09583"
       fy="388.03867"
       r="50.157001"
       gradientUnits="userSpaceOnUse"
       gradientTransform="matrix(3.8270836,0,0,3.8270836,-1410.1132,-932.6206)" />
    <linearGradient
       inkscape:collect="always"
       id="linearGradient2084">
      <stop
         style="stop-color:#310c0c;stop-opacity:0;"
         offset="0.75943571"
         id="stop2076" />
      <stop
         style="stop-color:#310c0c;stop-opacity:1;"
         offset="1"
         id="stop2082" />
    </linearGradient>
    <radialGradient
       inkscape:collect="always"
       xlink:href="#linearGradient2936"
       id="radialGradient2435-1-0"
       cx="462.09583"
       cy="388.03867"
       fx="462.09583"
       fy="388.03867"
       r="50.157001"
       gradientUnits="userSpaceOnUse"
       gradientTransform="matrix(2.8703127,0,0,2.8703127,-967.99382,-561.35694)" />
    <linearGradient
       inkscape:collect="always"
       id="linearGradient2936">
      <stop
         style="stop-color:#310c0c;stop-opacity:0;"
         offset="0.68535066"
         id="stop2932" />
      <stop
         style="stop-color:#310c0c;stop-opacity:1;"
         offset="1"
         id="stop2934" />
    </linearGradient>
    <radialGradient
       inkscape:collect="always"
       xlink:href="#linearGradient2930"
       id="radialGradient2435-2-3"
       cx="462.09583"
       cy="388.03867"
       fx="462.09583"
       fy="388.03867"
       r="50.157001"
       gradientUnits="userSpaceOnUse"
       gradientTransform="matrix(1.9135419,0,0,1.9135419,-525.87414,-190.09304)" />
    <linearGradient
       inkscape:collect="always"
       id="linearGradient2930">
      <stop
         style="stop-color:#310c0c;stop-opacity:0;"
         offset="0.52958941"
         id="stop2926" />
      <stop
         style="stop-color:#310c0c;stop-opacity:1;"
         offset="1"
         id="stop2928" />
    </linearGradient>
    <radialGradient
       inkscape:collect="always"
       xlink:href="#linearGradient2924"
       id="radialGradient2435-7-9"
       cx="462.09583"
       cy="388.03867"
       fx="462.09583"
       fy="388.03867"
       r="50.157001"
       gradientUnits="userSpaceOnUse"
       gradientTransform="matrix(0.95677093,0,0,0.95677093,-83.754312,181.17108)" />
    <linearGradient
       inkscape:collect="always"
       id="linearGradient2924">
      <stop
         style="stop-color:#310c0c;stop-opacity:0;"
         offset="0.12461376"
         id="stop2920" />
      <stop
         style="stop-color:#310c0c;stop-opacity:1;"
         offset="1"
         id="stop2922" />
    </linearGradient>
    <clipPath
       clipPathUnits="userSpaceOnUse"
       id="clipPath83345">
      <g
         id="g83367"
         clip-path="url(#clipPath83341)"
         style="display:none">
        <g
           inkscape:label="Clip"
           id="g83365">
          <g
             id="g83361">
            <path
               style="font-variation-settings:normal;display:inline;fill:#ffffff;fill-opacity:1;stroke:none;stroke-width:0.347614;stroke-linecap:butt;stroke-linejoin:miter;stroke-miterlimit:4;stroke-dasharray:none;stroke-dashoffset:0;stroke-opacity:0.999119;stop-color:#000000"
               d="m -632.19143,2898.3515 18.87232,45.5617 18.87229,-45.5617 z"
               id="path83347"
               inkscape:transform-center-x="-2.7832032e-05"
               inkscape:transform-center-y="-247.67674" />
            <path
               style="font-variation-settings:normal;display:inline;fill:#ffffff;fill-opacity:1;stroke:none;stroke-width:0.347614;stroke-linecap:butt;stroke-linejoin:miter;stroke-miterlimit:4;stroke-dasharray:none;stroke-dashoffset:0;stroke-opacity:0.999119;stop-color:#000000"
               d="m -388.53215,3017.2364 -30.02143,39.1248 48.89373,-6.437 z"
               id="path83349"
               inkscape:transform-center-x="-219.21244"
               inkscape:transform-center-y="-132.01029" />
            <path
               style="font-variation-settings:normal;display:inline;fill:#ffffff;fill-opacity:1;stroke:none;stroke-width:0.347614;stroke-linecap:butt;stroke-linejoin:miter;stroke-miterlimit:4;stroke-dasharray:none;stroke-dashoffset:0;stroke-opacity:0.999119;stop-color:#000000"
               d="m -369.65985,3287.694 -48.89379,-6.4369 30.02147,39.1247 z"
               id="path83351"
               inkscape:transform-center-x="-219.21241"
               inkscape:transform-center-y="132.01037" />
            <path
               style="font-variation-settings:normal;display:inline;fill:#ffffff;fill-opacity:1;stroke:none;stroke-width:0.347614;stroke-linecap:butt;stroke-linejoin:miter;stroke-miterlimit:4;stroke-dasharray:none;stroke-dashoffset:0;stroke-opacity:0.999119;stop-color:#000000"
               d="m -461.74646,3393.5961 -39.12482,-30.0214 6.43701,48.8937 z"
               id="path83353"
               inkscape:transform-center-x="-132.01028"
               inkscape:transform-center-y="219.21247" />
            <path
               style="font-variation-settings:normal;display:inline;fill:#ffffff;fill-opacity:1;stroke:none;stroke-width:0.347614;stroke-linecap:butt;stroke-linejoin:miter;stroke-miterlimit:4;stroke-dasharray:none;stroke-dashoffset:0;stroke-opacity:0.999119;stop-color:#000000"
               d="m -732.20407,3412.4684 6.43689,-48.8938 -39.12468,30.0215 z"
               id="path83355"
               inkscape:transform-center-x="132.01038"
               inkscape:transform-center-y="219.21242" />
            <path
               style="font-variation-settings:normal;display:inline;fill:#ffffff;fill-opacity:1;stroke:none;stroke-width:0.347614;stroke-linecap:butt;stroke-linejoin:miter;stroke-miterlimit:4;stroke-dasharray:none;stroke-dashoffset:0;stroke-opacity:0.999119;stop-color:#000000"
               d="m -883.77676,3187.6814 45.56172,-18.8724 -45.56173,-18.8722 z"
               id="path83357"
               inkscape:transform-center-x="247.67677"
               inkscape:transform-center-y="1.4305709e-05" />
            <path
               style="font-variation-settings:normal;display:inline;fill:#ffffff;fill-opacity:1;stroke:none;stroke-width:0.347614;stroke-linecap:butt;stroke-linejoin:miter;stroke-miterlimit:4;stroke-dasharray:none;stroke-dashoffset:0;stroke-opacity:0.999119;stop-color:#000000"
               d="m -856.97847,3049.9242 48.89386,6.4368 -30.02157,-39.1246 z"
               id="path83359"
               inkscape:transform-center-x="219.2124"
               inkscape:transform-center-y="-132.01039" />
          </g>
          <path
             id="path83363"
             style="display:inline;fill:#ffffff;stroke-width:0.997363;stroke-opacity:0.999119;stop-color:#000000"
             d="m -402.31395,3168.8091 a 211.0052,211.0052 0 0 1 -211.0052,211.0052 211.0052,211.0052 0 0 1 -211.00521,-211.0052 211.0052,211.0052 0 0 1 211.00521,-211.0052 211.0052,211.0052 0 0 1 211.0052,211.0052 z" />
        </g>
      </g>
      <path
         id="lpe_path-effect83369"
         class="powerclip"
         d="m -882.9025,2899.2257 h 539.16669 v 539.1667 H -882.9025 Z m 250.71107,-0.8742 18.87232,45.5617 18.87229,-45.5617 z m 243.65928,118.8849 -30.02143,39.1248 48.89373,-6.437 z m 18.8723,270.4576 -48.89379,-6.4369 30.02147,39.1247 z m -92.08661,105.9021 -39.12482,-30.0214 6.43701,48.8937 z m -270.45761,18.8723 6.43689,-48.8938 -39.12468,30.0215 z m -151.57269,-224.787 45.56172,-18.8724 -45.56173,-18.8722 z m 26.79829,-137.7572 48.89386,6.4368 -30.02157,-39.1246 z m 454.66452,118.8849 a 211.0052,211.0052 0 0 0 -211.0052,-211.0052 211.0052,211.0052 0 0 0 -211.00521,211.0052 211.0052,211.0052 0 0 0 211.00521,211.0052 211.0052,211.0052 0 0 0 211.0052,-211.0052 z" />
    </clipPath>
    <clipPath
       clipPathUnits="userSpaceOnUse"
       id="clipPath83341">
      <use
         x="0"
         y="0"
         xlink:href="#g83337"
         id="use83343" />
    </clipPath>
    <inkscape:path-effect
       effect="powerclip"
       id="path-effect83369"
       is_visible="true"
       lpeversion="1"
       inverse="true"
       flatten="false"
       hide_clip="false"
       message="Use fill-rule evenodd on &lt;b&gt;fill and stroke&lt;/b&gt; dialog if no flatten result after convert clip to paths." />
    <clipPath
       clipPathUnits="userSpaceOnUse"
       id="clipPath68">
      <circle
         style="display:none;fill:#ffffff;stroke-width:51.7567;stroke-linecap:round;stroke-linejoin:round;stroke-opacity:0.91"
         id="circle68"
         cx="-11110.516"
         cy="2425.5823"
         r="909.50519"
         d="m -10201.01,2425.5823 a 909.50519,909.50519 0 0 1 -909.506,909.5052 909.50519,909.50519 0 0 1 -909.505,-909.5052 909.50519,909.50519 0 0 1 909.505,-909.5052 909.50519,909.50519 0 0 1 909.506,909.5052 z" />
      <path
         id="lpe_path-effect68"
         style="fill:#ffffff;stroke-width:51.7567;stroke-linecap:round;stroke-linejoin:round;stroke-opacity:0.91"
         class="powerclip"
         d="m -11757.13,1444.3874 h 1293.229 v 1293.2291 h -1293.229 z m 1556.12,981.1949 a 909.50519,909.50519 0 0 0 -909.506,-909.5052 909.50519,909.50519 0 0 0 -909.505,909.5052 909.50519,909.50519 0 0 0 909.505,909.5052 909.50519,909.50519 0 0 0 909.506,-909.5052 z" />
    </clipPath>
    <inkscape:path-effect
       effect="powerclip"
       id="path-effect68"
       is_visible="true"
       lpeversion="1"
       inverse="true"
       flatten="false"
       hide_clip="false"
       message="Use fill-rule evenodd on &lt;b&gt;fill and stroke&lt;/b&gt; dialog if no flatten result after convert clip to paths." />
    <clipPath
       clipPathUnits="userSpaceOnUse"
       id="clipPath67">
      <circle
         style="display:none;fill:#ffffff;stroke-width:36.512;stroke-linecap:round;stroke-linejoin:round;stroke-opacity:0.91"
         id="circle67"
         cx="-7548.896"
         cy="101.10152"
         r="641.61456"
         d="m -6907.2814,101.10152 a 641.61456,641.61456 0 0 1 -641.6146,641.61456 641.61456,641.61456 0 0 1 -641.6146,-641.61456 641.61456,641.61456 0 0 1 641.6146,-641.61457 641.61456,641.61456 0 0 1 641.6146,641.61457 z" />
      <path
         id="lpe_path-effect67"
         style="fill:#ffffff;stroke-width:36.512;stroke-linecap:round;stroke-linejoin:round;stroke-opacity:0.91"
         class="powerclip"
         d="m -8016.9168,-591.30836 h 936.0416 v 936.04168 h -936.0416 z m 1109.6354,692.40988 a 641.61456,641.61456 0 0 0 -641.6146,-641.61457 641.61456,641.61456 0 0 0 -641.6146,641.61457 641.61456,641.61456 0 0 0 641.6146,641.61456 641.61456,641.61456 0 0 0 641.6146,-641.61456 z" />
    </clipPath>
    <inkscape:path-effect
       effect="powerclip"
       id="path-effect67"
       is_visible="true"
       lpeversion="1"
       inverse="true"
       flatten="false"
       hide_clip="false"
       message="Use fill-rule evenodd on &lt;b&gt;fill and stroke&lt;/b&gt; dialog if no flatten result after convert clip to paths." />
    <clipPath
       clipPathUnits="userSpaceOnUse"
       id="clipath_lpe_path-effect67-1">
      <circle
         style="display:none;fill:#ffffff;stroke-width:36.512;stroke-linecap:round;stroke-linejoin:round;stroke-opacity:0.91"
         id="circle72"
         cx="-7548.896"
         cy="101.10152"
         r="641.61456"
         d="m -6907.2814,101.10152 a 641.61456,641.61456 0 0 1 -641.6146,641.61456 641.61456,641.61456 0 0 1 -641.6146,-641.61456 641.61456,641.61456 0 0 1 641.6146,-641.61457 641.61456,641.61456 0 0 1 641.6146,641.61457 z" />
      <path
         id="lpe_path-effect67-1"
         style="fill:#ffffff;stroke-width:36.512;stroke-linecap:round;stroke-linejoin:round;stroke-opacity:0.91"
         class="powerclip"
         d="m -8016.9168,-591.30836 h 936.0416 v 936.04168 h -936.0416 z m 1109.6354,692.40988 a 641.61456,641.61456 0 0 0 -641.6146,-641.61457 641.61456,641.61456 0 0 0 -641.6146,641.61457 641.61456,641.61456 0 0 0 641.6146,641.61456 641.61456,641.61456 0 0 0 641.6146,-641.61456 z" />
    </clipPath>
    <inkscape:path-effect
       effect="powerclip"
       id="path-effect67-1"
       is_visible="true"
       lpeversion="1"
       inverse="true"
       flatten="false"
       hide_clip="false"
       message="Use fill-rule evenodd on &lt;b&gt;fill and stroke&lt;/b&gt; dialog if no flatten result after convert clip to paths." />
    <clipPath
       clipPathUnits="userSpaceOnUse"
       id="clipath_lpe_path-effect67-9">
      <circle
         style="display:none;fill:#ffffff;stroke-width:36.512;stroke-linecap:round;stroke-linejoin:round;stroke-opacity:0.91"
         id="circle74"
         cx="-7548.896"
         cy="101.10152"
         r="641.61456"
         d="m -6907.2814,101.10152 a 641.61456,641.61456 0 0 1 -641.6146,641.61456 641.61456,641.61456 0 0 1 -641.6146,-641.61456 641.61456,641.61456 0 0 1 641.6146,-641.61457 641.61456,641.61456 0 0 1 641.6146,641.61457 z" />
      <path
         id="lpe_path-effect67-9"
         style="fill:#ffffff;stroke-width:36.512;stroke-linecap:round;stroke-linejoin:round;stroke-opacity:0.91"
         class="powerclip"
         d="m -8016.9168,-591.30836 h 936.0416 v 936.04168 h -936.0416 z m 1109.6354,692.40988 a 641.61456,641.61456 0 0 0 -641.6146,-641.61457 641.61456,641.61456 0 0 0 -641.6146,641.61457 641.61456,641.61456 0 0 0 641.6146,641.61456 641.61456,641.61456 0 0 0 641.6146,-641.61456 z" />
    </clipPath>
    <inkscape:path-effect
       effect="powerclip"
       id="path-effect67-9"
       is_visible="true"
       lpeversion="1"
       inverse="true"
       flatten="false"
       hide_clip="false"
       message="Use fill-rule evenodd on &lt;b&gt;fill and stroke&lt;/b&gt; dialog if no flatten result after convert clip to paths." />
    <clipPath
       clipPathUnits="userSpaceOnUse"
       id="clipath_lpe_path-effect67-1-4">
      <circle
         style="display:none;fill:#ffffff;stroke-width:36.512;stroke-linecap:round;stroke-linejoin:round;stroke-opacity:0.91"
         id="circle73"
         cx="-7548.896"
         cy="101.10152"
         r="641.61456"
         d="m -6907.2814,101.10152 a 641.61456,641.61456 0 0 1 -641.6146,641.61456 641.61456,641.61456 0 0 1 -641.6146,-641.61456 641.61456,641.61456 0 0 1 641.6146,-641.61457 641.61456,641.61456 0 0 1 641.6146,641.61457 z" />
      <path
         id="lpe_path-effect67-1-4"
         style="fill:#ffffff;stroke-width:36.512;stroke-linecap:round;stroke-linejoin:round;stroke-opacity:0.91"
         class="powerclip"
         d="m -8016.9168,-591.30836 h 936.0416 v 936.04168 h -936.0416 z m 1109.6354,692.40988 a 641.61456,641.61456 0 0 0 -641.6146,-641.61457 641.61456,641.61456 0 0 0 -641.6146,641.61457 641.61456,641.61456 0 0 0 641.6146,641.61456 641.61456,641.61456 0 0 0 641.6146,-641.61456 z" />
    </clipPath>
    <inkscape:path-effect
       effect="powerclip"
       id="path-effect67-1-4"
       is_visible="true"
       lpeversion="1"
       inverse="true"
       flatten="false"
       hide_clip="false"
       message="Use fill-rule evenodd on &lt;b&gt;fill and stroke&lt;/b&gt; dialog if no flatten result after convert clip to paths." />
    <clipPath
       clipPathUnits="userSpaceOnUse"
       id="clipPath66">
      <circle
         style="display:none;fill:#ffffff;stroke-width:26.3489;stroke-linecap:round;stroke-linejoin:round;stroke-opacity:0.91"
         id="circle66"
         cx="-10673.556"
         cy="-516.49408"
         r="463.02084"
         d="m -10210.535,-516.49408 a 463.02084,463.02084 0 0 1 -463.021,463.020844 463.02084,463.02084 0 0 1 -463.021,-463.020844 463.02084,463.02084 0 0 1 463.021,-463.02084 463.02084,463.02084 0 0 1 463.021,463.02084 z" />
      <path
         id="lpe_path-effect66"
         style="fill:#ffffff;stroke-width:26.3489;stroke-linecap:round;stroke-linejoin:round;stroke-opacity:0.91"
         class="powerclip"
         d="m -11022.514,-1016.2375 h 697.917 v 697.91667 h -697.917 z m 811.979,499.74342 a 463.02084,463.02084 0 0 0 -463.021,-463.02084 463.02084,463.02084 0 0 0 -463.021,463.02084 463.02084,463.02084 0 0 0 463.021,463.020844 463.02084,463.02084 0 0 0 463.021,-463.020844 z" />
    </clipPath>
    <inkscape:path-effect
       effect="powerclip"
       id="path-effect66"
       is_visible="true"
       lpeversion="1"
       inverse="true"
       flatten="false"
       hide_clip="false"
       message="Use fill-rule evenodd on &lt;b&gt;fill and stroke&lt;/b&gt; dialog if no flatten result after convert clip to paths." />
    <clipPath
       clipPathUnits="userSpaceOnUse"
       id="clipath_lpe_path-effect66-4">
      <circle
         style="display:none;fill:#ffffff;stroke-width:26.3489;stroke-linecap:round;stroke-linejoin:round;stroke-opacity:0.91"
         id="circle75"
         cx="-10673.556"
         cy="-516.49408"
         r="463.02084"
         d="m -10210.535,-516.49408 a 463.02084,463.02084 0 0 1 -463.021,463.020844 463.02084,463.02084 0 0 1 -463.021,-463.020844 463.02084,463.02084 0 0 1 463.021,-463.02084 463.02084,463.02084 0 0 1 463.021,463.02084 z" />
      <path
         id="lpe_path-effect66-4"
         style="fill:#ffffff;stroke-width:26.3489;stroke-linecap:round;stroke-linejoin:round;stroke-opacity:0.91"
         class="powerclip"
         d="m -11022.514,-1016.2375 h 697.917 v 697.91667 h -697.917 z m 811.979,499.74342 a 463.02084,463.02084 0 0 0 -463.021,-463.02084 463.02084,463.02084 0 0 0 -463.021,463.02084 463.02084,463.02084 0 0 0 463.021,463.020844 463.02084,463.02084 0 0 0 463.021,-463.020844 z" />
    </clipPath>
    <inkscape:path-effect
       effect="powerclip"
       id="path-effect66-4"
       is_visible="true"
       lpeversion="1"
       inverse="true"
       flatten="false"
       hide_clip="false"
       message="Use fill-rule evenodd on &lt;b&gt;fill and stroke&lt;/b&gt; dialog if no flatten result after convert clip to paths." />
    <clipPath
       clipPathUnits="userSpaceOnUse"
       id="clipath_lpe_path-effect66-2">
      <circle
         style="display:none;fill:#ffffff;stroke-width:26.3489;stroke-linecap:round;stroke-linejoin:round;stroke-opacity:0.91"
         id="circle77"
         cx="-10673.556"
         cy="-516.49408"
         r="463.02084"
         d="m -10210.535,-516.49408 a 463.02084,463.02084 0 0 1 -463.021,463.020844 463.02084,463.02084 0 0 1 -463.021,-463.020844 463.02084,463.02084 0 0 1 463.021,-463.02084 463.02084,463.02084 0 0 1 463.021,463.02084 z" />
      <path
         id="lpe_path-effect66-2"
         style="fill:#ffffff;stroke-width:26.3489;stroke-linecap:round;stroke-linejoin:round;stroke-opacity:0.91"
         class="powerclip"
         d="m -11022.514,-1016.2375 h 697.917 v 697.91667 h -697.917 z m 811.979,499.74342 a 463.02084,463.02084 0 0 0 -463.021,-463.02084 463.02084,463.02084 0 0 0 -463.021,463.02084 463.02084,463.02084 0 0 0 463.021,463.020844 463.02084,463.02084 0 0 0 463.021,-463.020844 z" />
    </clipPath>
    <inkscape:path-effect
       effect="powerclip"
       id="path-effect66-2"
       is_visible="true"
       lpeversion="1"
       inverse="true"
       flatten="false"
       hide_clip="false"
       message="Use fill-rule evenodd on &lt;b&gt;fill and stroke&lt;/b&gt; dialog if no flatten result after convert clip to paths." />
    <clipPath
       clipPathUnits="userSpaceOnUse"
       id="clipath_lpe_path-effect66-4-9">
      <circle
         style="display:none;fill:#ffffff;stroke-width:26.3489;stroke-linecap:round;stroke-linejoin:round;stroke-opacity:0.91"
         id="circle76"
         cx="-10673.556"
         cy="-516.49408"
         r="463.02084"
         d="m -10210.535,-516.49408 a 463.02084,463.02084 0 0 1 -463.021,463.020844 463.02084,463.02084 0 0 1 -463.021,-463.020844 463.02084,463.02084 0 0 1 463.021,-463.02084 463.02084,463.02084 0 0 1 463.021,463.02084 z" />
      <path
         id="lpe_path-effect66-4-9"
         style="fill:#ffffff;stroke-width:26.3489;stroke-linecap:round;stroke-linejoin:round;stroke-opacity:0.91"
         class="powerclip"
         d="m -11022.514,-1016.2375 h 697.917 v 697.91667 h -697.917 z m 811.979,499.74342 a 463.02084,463.02084 0 0 0 -463.021,-463.02084 463.02084,463.02084 0 0 0 -463.021,463.02084 463.02084,463.02084 0 0 0 463.021,463.020844 463.02084,463.02084 0 0 0 463.021,-463.020844 z" />
    </clipPath>
    <inkscape:path-effect
       effect="powerclip"
       id="path-effect66-4-9"
       is_visible="true"
       lpeversion="1"
       inverse="true"
       flatten="false"
       hide_clip="false"
       message="Use fill-rule evenodd on &lt;b&gt;fill and stroke&lt;/b&gt; dialog if no flatten result after convert clip to paths." />
    <clipPath
       clipPathUnits="userSpaceOnUse"
       id="clipath_lpe_path-effect68-2">
      <circle
         style="display:none;fill:#ffffff;stroke-width:51.7567;stroke-linecap:round;stroke-linejoin:round;stroke-opacity:0.91"
         id="circle69"
         cx="-11110.516"
         cy="2425.5823"
         r="909.50519"
         d="m -10201.01,2425.5823 a 909.50519,909.50519 0 0 1 -909.506,909.5052 909.50519,909.50519 0 0 1 -909.505,-909.5052 909.50519,909.50519 0 0 1 909.505,-909.5052 909.50519,909.50519 0 0 1 909.506,909.5052 z" />
      <path
         id="lpe_path-effect68-2"
         style="fill:#ffffff;stroke-width:51.7567;stroke-linecap:round;stroke-linejoin:round;stroke-opacity:0.91"
         class="powerclip"
         d="m -11757.13,1444.3874 h 1293.229 v 1293.2291 h -1293.229 z m 1556.12,981.1949 a 909.50519,909.50519 0 0 0 -909.506,-909.5052 909.50519,909.50519 0 0 0 -909.505,909.5052 909.50519,909.50519 0 0 0 909.505,909.5052 909.50519,909.50519 0 0 0 909.506,-909.5052 z" />
    </clipPath>
    <inkscape:path-effect
       effect="powerclip"
       id="path-effect68-2"
       is_visible="true"
       lpeversion="1"
       inverse="true"
       flatten="false"
       hide_clip="false"
       message="Use fill-rule evenodd on &lt;b&gt;fill and stroke&lt;/b&gt; dialog if no flatten result after convert clip to paths." />
    <clipPath
       clipPathUnits="userSpaceOnUse"
       id="clipath_lpe_path-effect68-2-7">
      <circle
         style="display:none;fill:#ffffff;stroke-width:51.7567;stroke-linecap:round;stroke-linejoin:round;stroke-opacity:0.91"
         id="circle69-4"
         cx="-11110.516"
         cy="2425.5823"
         r="909.50519"
         d="m -10201.01,2425.5823 a 909.50519,909.50519 0 0 1 -909.506,909.5052 909.50519,909.50519 0 0 1 -909.505,-909.5052 909.50519,909.50519 0 0 1 909.505,-909.5052 909.50519,909.50519 0 0 1 909.506,909.5052 z" />
      <path
         id="lpe_path-effect68-2-1"
         style="fill:#ffffff;stroke-width:51.7567;stroke-linecap:round;stroke-linejoin:round;stroke-opacity:0.91"
         class="powerclip"
         d="m -11757.13,1444.3874 h 1293.229 v 1293.2291 h -1293.229 z m 1556.12,981.1949 a 909.50519,909.50519 0 0 0 -909.506,-909.5052 909.50519,909.50519 0 0 0 -909.505,909.5052 909.50519,909.50519 0 0 0 909.505,909.5052 909.50519,909.50519 0 0 0 909.506,-909.5052 z" />
    </clipPath>
    <inkscape:path-effect
       effect="powerclip"
       id="path-effect68-2-7"
       is_visible="true"
       lpeversion="1"
       inverse="true"
       flatten="false"
       hide_clip="false"
       message="Use fill-rule evenodd on &lt;b&gt;fill and stroke&lt;/b&gt; dialog if no flatten result after convert clip to paths." />
    <clipPath
       clipPathUnits="userSpaceOnUse"
       id="clipath_lpe_path-effect68-2-7-8">
      <circle
         style="display:none;fill:#ffffff;stroke-width:51.7567;stroke-linecap:round;stroke-linejoin:round;stroke-opacity:0.91"
         id="circle71"
         cx="-11110.516"
         cy="2425.5823"
         r="909.50519"
         d="m -10201.01,2425.5823 a 909.50519,909.50519 0 0 1 -909.506,909.5052 909.50519,909.50519 0 0 1 -909.505,-909.5052 909.50519,909.50519 0 0 1 909.505,-909.5052 909.50519,909.50519 0 0 1 909.506,909.5052 z" />
      <path
         id="lpe_path-effect68-2-7-8"
         style="fill:#ffffff;stroke-width:51.7567;stroke-linecap:round;stroke-linejoin:round;stroke-opacity:0.91"
         class="powerclip"
         d="m -11757.13,1444.3874 h 1293.229 v 1293.2291 h -1293.229 z m 1556.12,981.1949 a 909.50519,909.50519 0 0 0 -909.506,-909.5052 909.50519,909.50519 0 0 0 -909.505,909.5052 909.50519,909.50519 0 0 0 909.505,909.5052 909.50519,909.50519 0 0 0 909.506,-909.5052 z" />
    </clipPath>
    <inkscape:path-effect
       effect="powerclip"
       id="path-effect68-2-7-8"
       is_visible="true"
       lpeversion="1"
       inverse="true"
       flatten="false"
       hide_clip="false"
       message="Use fill-rule evenodd on &lt;b&gt;fill and stroke&lt;/b&gt; dialog if no flatten result after convert clip to paths." />
    <clipPath
       clipPathUnits="userSpaceOnUse"
       id="clipPath1">
      <circle
         style="display:none;fill:#ffffff;stroke-width:51.7567;stroke-linecap:round;stroke-linejoin:round;stroke-opacity:0.91"
         id="circle1"
         cx="-11110.516"
         cy="2425.5823"
         r="909.50519" />
      <path
         id="lpe_path-effect68-2-7"
         style="fill:#ffffff;stroke-width:51.7567;stroke-linecap:round;stroke-linejoin:round;stroke-opacity:0.91"
         class="powerclip"
         d="m -11757.13,1444.3874 h 1293.229 v 1293.2291 h -1293.229 z m 1556.12,981.1949 a 909.50519,909.50519 0 0 0 -909.506,-909.5052 909.50519,909.50519 0 0 0 -909.505,909.5052 909.50519,909.50519 0 0 0 909.505,909.5052 909.50519,909.50519 0 0 0 909.506,-909.5052 z" />
    </clipPath>
  </defs>
  <g
     inkscape:label="Layer 1"
     inkscape:groupmode="layer"
     id="layer1">
    <circle
       style="fill:#fdf291;stroke-width:32.7157;stroke-linecap:round;stroke-linejoin:round;stroke-opacity:0.91;fill-opacity:1"
       id="path1"
       cx="641.61475"
       cy="641.61481"
       r="211.66667" />
    <g
       id="g78"
       transform="translate(6195.1069,-1082.321)">
      <g
         id="g77"
         transform="matrix(1.1061512,0,0,1.1061512,-5949.8984,1112.859)"
         style="display:inline">
        <circle
           style="display:inline;fill:url(#radialGradient2435-76);fill-opacity:1;stroke:none;stroke-width:1.91354;stroke-dasharray:none;stroke-opacity:0.999119"
           id="path1514-7"
           cx="358.36523"
           cy="552.43494"
           r="191.3542"
           inkscape:label="path1514" />
        <circle
           style="display:inline;fill:url(#radialGradient2435-1-0);fill-opacity:1;stroke:none;stroke-width:0.901276;stroke-dasharray:none;stroke-opacity:1"
           id="path1514-9-4"
           cx="358.36523"
           cy="552.43494"
           r="143.51564" />
        <circle
           style="display:inline;fill:url(#radialGradient2435-2-3);fill-opacity:1;stroke:none;stroke-width:0.600851;stroke-dasharray:none;stroke-opacity:1"
           id="path1514-3-1"
           cx="358.36523"
           cy="552.43494"
           r="95.677101" />
        <circle
           style="display:inline;fill:url(#radialGradient2435-7-9);fill-opacity:1;stroke:none;stroke-width:2.16613;stroke-dasharray:none;stroke-opacity:1"
           id="path1514-2-6"
           cx="358.36523"
           cy="552.43494"
           r="47.838551" />
        <path
           style="font-variation-settings:normal;display:inline;fill:#310c0c;fill-opacity:1;stroke:none;stroke-width:1.25061;stroke-linecap:butt;stroke-linejoin:miter;stroke-miterlimit:4;stroke-dasharray:none;stroke-dashoffset:0;stroke-opacity:0.999119;stop-color:#000000"
           id="path82523"
           clip-path="url(#clipPath83345)"
           inkscape:path-effect="#path-effect83369"
           sodipodi:type="arc"
           sodipodi:cx="-613.31915"
           sodipodi:cy="3168.8091"
           sodipodi:rx="264.58334"
           sodipodi:ry="264.58334"
           d="m -348.73581,3168.8091 a 264.58334,264.58334 0 0 1 -264.58334,264.5833 264.58334,264.58334 0 0 1 -264.58335,-264.5833 264.58334,264.58334 0 0 1 264.58335,-264.5834 264.58334,264.58334 0 0 1 264.58334,264.5834 z"
           transform="matrix(0.90403555,0,0,0.90403555,912.82755,-2312.2811)" />
      </g>
      <g
         id="g79"
         style="fill:#fdf091;fill-opacity:1">
        <path
           style="fill:#fdf091;stroke-width:36.512;stroke-linecap:round;stroke-linejoin:round;stroke-opacity:0.91;fill-opacity:1"
           id="path66-8-3-8-8-4"
           clip-path="url(#clipPath68)"
           inkscape:path-effect="#path-effect68"
           sodipodi:type="arc"
           sodipodi:cx="-11110.516"
           sodipodi:cy="2091.002"
           sodipodi:rx="641.61456"
           sodipodi:ry="641.61456"
           d="m -10468.901,2091.002 a 641.61456,641.61456 0 0 1 -641.615,641.6145 641.61456,641.61456 0 0 1 -641.614,-641.6145 641.61456,641.61456 0 0 1 641.614,-641.6146 641.61456,641.61456 0 0 1 641.615,641.6146 z"
           transform="translate(5557.0233,-367.06642)" />
        <path
           style="fill:#fdf091;stroke-width:26.3489;stroke-linecap:round;stroke-linejoin:round;stroke-opacity:0.91;fill-opacity:1"
           id="path66-8-3-4"
           clip-path="url(#clipPath67)"
           inkscape:path-effect="#path-effect67"
           sodipodi:type="arc"
           sodipodi:cx="-7548.896"
           sodipodi:cy="-123.28752"
           sodipodi:rx="463.02084"
           sodipodi:ry="463.02084"
           d="m -7085.8752,-123.28752 a 463.02084,463.02084 0 0 1 -463.0208,463.02084 463.02084,463.02084 0 0 1 -463.0208,-463.02084 463.02084,463.02084 0 0 1 463.0208,-463.02084 463.02084,463.02084 0 0 1 463.0208,463.02084 z"
           transform="translate(1995.4038,1847.2231)" />
        <path
           style="fill:#fdf091;stroke-width:26.3489;stroke-linecap:round;stroke-linejoin:round;stroke-opacity:0.91;fill-opacity:1"
           id="path66-8-3-4-2"
           clip-path="url(#clipath_lpe_path-effect67-1)"
           inkscape:path-effect="#path-effect67-1"
           sodipodi:type="arc"
           sodipodi:cx="-7548.896"
           sodipodi:cy="-123.28752"
           sodipodi:rx="463.02084"
           sodipodi:ry="463.02084"
           d="m -7085.8752,-123.28752 a 463.02084,463.02084 0 0 1 -463.0208,463.02084 463.02084,463.02084 0 0 1 -463.0208,-463.02084 463.02084,463.02084 0 0 1 463.0208,-463.02084 463.02084,463.02084 0 0 1 463.0208,463.02084 z"
           transform="rotate(90,-7474.8056,1798.0259)" />
        <path
           style="fill:#fdf091;stroke-width:26.3489;stroke-linecap:round;stroke-linejoin:round;stroke-opacity:0.91;fill-opacity:1"
           id="path66-8-3-4-4"
           clip-path="url(#clipath_lpe_path-effect67-9)"
           inkscape:path-effect="#path-effect67-9"
           sodipodi:type="arc"
           sodipodi:cx="-7548.896"
           sodipodi:cy="-123.28752"
           sodipodi:rx="463.02084"
           sodipodi:ry="463.02084"
           d="m -7085.8752,-123.28752 a 463.02084,463.02084 0 0 1 -463.0208,463.02084 463.02084,463.02084 0 0 1 -463.0208,-463.02084 463.02084,463.02084 0 0 1 463.0208,-463.02084 463.02084,463.02084 0 0 1 463.0208,463.02084 z"
           transform="rotate(180,-6551.1941,800.32399)" />
        <path
           style="fill:#fdf091;stroke-width:26.3489;stroke-linecap:round;stroke-linejoin:round;stroke-opacity:0.91;fill-opacity:1"
           id="path66-8-3-4-2-9"
           clip-path="url(#clipath_lpe_path-effect67-1-4)"
           inkscape:path-effect="#path-effect67-1-4"
           sodipodi:type="arc"
           sodipodi:cx="-7548.896"
           sodipodi:cy="-123.28752"
           sodipodi:rx="463.02084"
           sodipodi:ry="463.02084"
           d="m -7085.8752,-123.28752 a 463.02084,463.02084 0 0 1 -463.0208,463.02084 463.02084,463.02084 0 0 1 -463.0208,-463.02084 463.02084,463.02084 0 0 1 463.0208,-463.02084 463.02084,463.02084 0 0 1 463.0208,463.02084 z"
           transform="rotate(-90,-5627.5825,-197.37788)" />
        <path
           style="fill:#fdf091;stroke-width:19.5735;stroke-linecap:round;stroke-linejoin:round;stroke-opacity:0.91;fill-opacity:1"
           id="path66-4"
           clip-path="url(#clipPath66)"
           inkscape:path-effect="#path-effect66"
           sodipodi:type="arc"
           sodipodi:cx="-10673.556"
           sodipodi:cy="-667.27917"
           sodipodi:rx="343.95834"
           sodipodi:ry="343.95834"
           d="m -10329.597,-667.27917 a 343.95834,343.95834 0 0 1 -343.959,343.95834 343.95834,343.95834 0 0 1 -343.958,-343.95834 343.95834,343.95834 0 0 1 343.958,-343.95833 343.95834,343.95834 0 0 1 343.959,343.95833 z"
           transform="translate(5120.0635,2391.215)" />
        <path
           style="fill:#fdf091;stroke-width:19.5735;stroke-linecap:round;stroke-linejoin:round;stroke-opacity:0.91;fill-opacity:1"
           id="path66-4-5"
           clip-path="url(#clipath_lpe_path-effect66-4)"
           inkscape:path-effect="#path-effect66-4"
           sodipodi:type="arc"
           sodipodi:cx="-10673.556"
           sodipodi:cy="-667.27917"
           sodipodi:rx="343.95834"
           sodipodi:ry="343.95834"
           d="m -10329.597,-667.27917 a 343.95834,343.95834 0 0 1 -343.959,343.95834 343.95834,343.95834 0 0 1 -343.958,-343.95834 343.95834,343.95834 0 0 1 343.958,-343.95833 343.95834,343.95834 0 0 1 343.959,343.95833 z"
           transform="rotate(90,-9309.1314,3088.3601)" />
        <path
           style="fill:#fdf091;stroke-width:19.5735;stroke-linecap:round;stroke-linejoin:round;stroke-opacity:0.91;fill-opacity:1"
           id="path66-4-2"
           clip-path="url(#clipath_lpe_path-effect66-2)"
           inkscape:path-effect="#path-effect66-2"
           sodipodi:type="arc"
           sodipodi:cx="-10673.556"
           sodipodi:cy="-667.27917"
           sodipodi:rx="343.95834"
           sodipodi:ry="343.95834"
           d="m -10329.597,-667.27917 a 343.95834,343.95834 0 0 1 -343.959,343.95834 343.95834,343.95834 0 0 1 -343.958,-343.95834 343.95834,343.95834 0 0 1 343.958,-343.95833 343.95834,343.95834 0 0 1 343.959,343.95833 z"
           transform="rotate(180,-8113.5239,528.32819)" />
        <path
           style="fill:#fdf091;stroke-width:19.5735;stroke-linecap:round;stroke-linejoin:round;stroke-opacity:0.91;fill-opacity:1"
           id="path66-4-5-7"
           clip-path="url(#clipath_lpe_path-effect66-4-9)"
           inkscape:path-effect="#path-effect66-4-9"
           sodipodi:type="arc"
           sodipodi:cx="-10673.556"
           sodipodi:cy="-667.27917"
           sodipodi:rx="343.95834"
           sodipodi:ry="343.95834"
           d="m -10329.597,-667.27917 a 343.95834,343.95834 0 0 1 -343.959,343.95834 343.95834,343.95834 0 0 1 -343.958,-343.95834 343.95834,343.95834 0 0 1 343.958,-343.95833 343.95834,343.95834 0 0 1 343.959,343.95833 z"
           transform="rotate(-90,-6917.9166,-2031.7036)" />
        <path
           style="fill:#fdf091;stroke-width:36.512;stroke-linecap:round;stroke-linejoin:round;stroke-opacity:0.91;fill-opacity:1"
           id="path66-8-3-8-8-4-7"
           clip-path="url(#clipath_lpe_path-effect68-2)"
           inkscape:path-effect="#path-effect68-2"
           sodipodi:type="arc"
           sodipodi:cx="-11110.516"
           sodipodi:cy="2091.002"
           sodipodi:rx="641.61456"
           sodipodi:ry="641.61456"
           d="m -10468.901,2091.002 a 641.61456,641.61456 0 0 1 -641.615,641.6145 641.61456,641.61456 0 0 1 -641.614,-641.6145 641.61456,641.61456 0 0 1 641.614,-641.6146 641.61456,641.61456 0 0 1 641.615,641.6146 z"
           transform="rotate(90,-8148.4708,4685.9804)" />
        <path
           style="fill:#fdf091;stroke-width:36.512;stroke-linecap:round;stroke-linejoin:round;stroke-opacity:0.91;fill-opacity:1"
           id="path66-8-3-8-8-4-7-1"
           clip-path="url(#clipath_lpe_path-effect68-2-7)"
           inkscape:path-effect="#path-effect68-2-7"
           sodipodi:type="arc"
           sodipodi:cx="-11110.516"
           sodipodi:cy="2091.002"
           sodipodi:rx="641.61456"
           sodipodi:ry="641.61456"
           d="m -10468.901,2091.002 a 641.61456,641.61456 0 0 1 -641.615,641.6145 641.61456,641.61456 0 0 1 -641.614,-641.6145 641.61456,641.61456 0 0 1 641.614,-641.6146 641.61456,641.61456 0 0 1 641.615,641.6146 z"
           transform="rotate(180,-8332.0039,1907.4688)" />
        <path
           style="fill:#fdf091;stroke-width:36.512;stroke-linecap:round;stroke-linejoin:round;stroke-opacity:0.91;fill-opacity:1"
           id="path66-8-3-8-8-4-7-1-6"
           clip-path="url(#clipath_lpe_path-effect68-2-7-8)"
           inkscape:path-effect="#path-effect68-2-7-8"
           sodipodi:type="arc"
           sodipodi:cx="-11110.516"
           sodipodi:cy="2091.002"
           sodipodi:rx="641.61456"
           sodipodi:ry="641.61456"
           d="m -10468.901,2091.002 a 641.61456,641.61456 0 0 1 -641.615,641.6145 641.61456,641.61456 0 0 1 -641.614,-641.6145 641.61456,641.61456 0 0 1 641.614,-641.6146 641.61456,641.61456 0 0 1 641.615,641.6146 z"
           transform="rotate(-90,-8515.5371,-871.04292)" />
      </g>
    </g>
  </g>
</svg>
