<?xml version="1.0" encoding="UTF-8" standalone="no"?>
<!-- Created with Inkscape (http://www.inkscape.org/) -->

<svg
   width="1152"
   height="512"
   viewBox="0 0 304.79999 135.46667"
   version="1.1"
   id="svg1"
   sodipodi:docname="water-dropsmoothed-light.svg"
   inkscape:version="1.3.2 (1:1.3.2+202311252150+091e20ef0f)"
   xmlns:inkscape="http://www.inkscape.org/namespaces/inkscape"
   xmlns:sodipodi="http://sodipodi.sourceforge.net/DTD/sodipodi-0.dtd"
   xmlns="http://www.w3.org/2000/svg"
   xmlns:svg="http://www.w3.org/2000/svg">
  <sodipodi:namedview
     id="namedview1"
     pagecolor="#ffffff"
     bordercolor="#000000"
     borderopacity="0.25"
     inkscape:showpageshadow="2"
     inkscape:pageopacity="0.0"
     inkscape:pagecheckerboard="0"
     inkscape:deskcolor="#d1d1d1"
     inkscape:zoom="0.58762292"
     inkscape:cx="176.98425"
     inkscape:cy="258.66928"
     inkscape:window-width="2256"
     inkscape:window-height="1467"
     inkscape:window-x="0"
     inkscape:window-y="0"
     inkscape:window-maximized="1"
     inkscape:current-layer="layer1" />
  <defs
     id="defs1">
    <filter
       id="mask-powermask-path-effect2_inverse"
       inkscape:label="filtermask-powermask-path-effect2"
       style="color-interpolation-filters:sRGB"
       height="100"
       width="100"
       x="-50"
       y="-50">
      <feColorMatrix
         id="mask-powermask-path-effect2_primitive1"
         values="1"
         type="saturate"
         result="fbSourceGraphic" />
      <feColorMatrix
         id="mask-powermask-path-effect2_primitive2"
         values="-1 0 0 0 1 0 -1 0 0 1 0 0 -1 0 1 0 0 0 1 0 "
         in="fbSourceGraphic" />
    </filter>
    <filter
       id="mask-powermask-path-effect4_inverse"
       inkscape:label="filtermask-powermask-path-effect4"
       style="color-interpolation-filters:sRGB"
       height="100"
       width="100"
       x="-50"
       y="-50">
      <feColorMatrix
         id="mask-powermask-path-effect4_primitive1"
         values="1"
         type="saturate"
         result="fbSourceGraphic" />
      <feColorMatrix
         id="mask-powermask-path-effect4_primitive2"
         values="-1 0 0 0 1 0 -1 0 0 1 0 0 -1 0 1 0 0 0 1 0 "
         in="fbSourceGraphic" />
    </filter>
    <filter
       id="mask-powermask-path-effect5_inverse"
       inkscape:label="filtermask-powermask-path-effect5"
       style="color-interpolation-filters:sRGB"
       height="100"
       width="100"
       x="-50"
       y="-50">
      <feColorMatrix
         id="mask-powermask-path-effect5_primitive1"
         values="1"
         type="saturate"
         result="fbSourceGraphic" />
      <feColorMatrix
         id="mask-powermask-path-effect5_primitive2"
         values="-1 0 0 0 1 0 -1 0 0 1 0 0 -1 0 1 0 0 0 1 0 "
         in="fbSourceGraphic" />
    </filter>
    <filter
       id="mask-powermask-path-effect6_inverse"
       inkscape:label="filtermask-powermask-path-effect6"
       style="color-interpolation-filters:sRGB"
       height="100"
       width="100"
       x="-50"
       y="-50">
      <feColorMatrix
         id="mask-powermask-path-effect6_primitive1"
         values="1"
         type="saturate"
         result="fbSourceGraphic" />
      <feColorMatrix
         id="mask-powermask-path-effect6_primitive2"
         values="-1 0 0 0 1 0 -1 0 0 1 0 0 -1 0 1 0 0 0 1 0 "
         in="fbSourceGraphic" />
    </filter>
    <filter
       id="mask-powermask-path-effect7_inverse"
       inkscape:label="filtermask-powermask-path-effect7"
       style="color-interpolation-filters:sRGB"
       height="100"
       width="100"
       x="-50"
       y="-50">
      <feColorMatrix
         id="mask-powermask-path-effect7_primitive1"
         values="1"
         type="saturate"
         result="fbSourceGraphic" />
      <feColorMatrix
         id="mask-powermask-path-effect7_primitive2"
         values="-1 0 0 0 1 0 -1 0 0 1 0 0 -1 0 1 0 0 0 1 0 "
         in="fbSourceGraphic" />
    </filter>
  </defs>
  <g
     id="layer1">
    <path
       d="M 304.8,-2.5e-6 C 304.8,74.816107 214.00205,135.46662 101.77791,135.46667 45.567513,135.46662 -4.7499969e-5,105.14144 2.5000308e-6,67.733357 -4.7499969e-5,30.325287 45.567503,4.75e-5 101.77792,-2.5e-6 c 30.70498,0 48.71438,8.92408 76.89518,23.3578395 C 206.8539,37.791597 276.89356,71.295287 304.8,-2.5e-6 Z"
       style="fill:#80a5ef;fill-opacity:1;stroke-width:1.42278"
       id="path1-1-6-7-6" />
  </g>
  <path
     style="fill:#0a2252;fill-opacity:1;stroke-width:0.170177"
     d="m 88.847693,125.54855 c -5.326567,-0.28279 -15.404015,-1.56555 -20.917392,-2.66258 -5.828813,-1.15979 -6.943024,-1.52225 -4.709917,-1.53216 3.908791,-0.0174 24.649639,-0.96274 29.679645,-1.35284 48.905261,-3.79287 94.021341,-14.69734 134.322541,-32.465471 7.3751,-3.251562 22.25546,-10.650701 27.4562,-13.652385 2.05549,-1.18635 3.8344,-2.05986 3.95312,-1.94113 0.27685,0.27685 -7.37388,6.517466 -12.68841,10.349818 -31.37056,22.621538 -73.60224,37.512738 -119.04877,41.977438 -12.92589,1.26984 -28.415181,1.79066 -38.047017,1.27931 z"
     id="path9" />
  <path
     style="fill:#0a2252;fill-opacity:1;stroke-width:0.170177"
     d="m 177.5838,31.028007 c -8.03462,-3.563616 -23.41607,-8.217357 -33.92659,-10.264664 -13.39737,-2.60964 -17.82732,-2.96898 -36.57178,-2.96654 -16.869664,0.002 -21.076341,0.24123 -32.193595,1.82928 -9.481314,1.35437 -22.093488,4.089897 -30.303912,6.572797 -1.68475,0.509491 -3.16906,0.820451 -3.298469,0.691041 -0.381897,-0.3819 11.341143,-5.940418 16.79379,-7.962838 9.497358,-3.522627 19.254312,-5.899297 30.897842,-7.526313 7.054256,-0.985731 28.561374,-1.114951 34.989114,-0.21022 11.00281,1.548686 22.38321,4.738077 33.31929,9.337843 6.26102,2.633407 23.91071,11.382725 22.96329,11.383365 -0.37146,2.6e-4 -1.5725,-0.397431 -2.66898,-0.883751 z"
     id="path10" />
</svg>
